<svg width="24" height="26" viewBox="0 0 24 26" fill="none" xmlns="http://www.w3.org/2000/svg">
<path d="M0 5.2V23.4C0 24.0896 0.280951 24.7509 0.781048 25.2385C1.28115 25.7261 1.95942 26 2.66667 26H21.3333C22.0406 26 22.7189 25.7261 23.219 25.2385C23.719 24.7509 24 24.0896 24 23.4V5.2C24 4.51044 23.719 3.84912 23.219 3.36152C22.7189 2.87393 22.0406 2.6 21.3333 2.6H18.6667V0H16V2.6H8V0H5.33333V2.6H2.66667C1.95942 2.6 1.28115 2.87393 0.781048 3.36152C0.280951 3.84912 0 4.51044 0 5.2ZM21.3333 23.4H2.66667V7.8H21.3333V23.4Z" fill="#707070"/>
</svg>
