<svg width="27" height="25" viewBox="0 0 27 25" fill="none" xmlns="http://www.w3.org/2000/svg">
<path d="M10.1284 8.28125C10.1284 8.95258 9.86167 9.59641 9.38697 10.0711C8.91227 10.5458 8.26844 10.8125 7.59711 10.8125C6.92578 10.8125 6.28194 10.5458 5.80724 10.0711C5.33254 9.59641 5.06586 8.95258 5.06586 8.28125C5.06586 7.60992 5.33254 6.96609 5.80724 6.49139C6.28194 6.01668 6.92578 5.75 7.59711 5.75C8.26844 5.75 8.91227 6.01668 9.38697 6.49139C9.86167 6.96609 10.1284 7.60992 10.1284 8.28125Z" fill="white"/>
<path d="M3.37836 0.6875C2.48325 0.6875 1.62481 1.04308 0.991872 1.67601C0.358936 2.30895 0.00335693 3.16739 0.00335693 4.0625V20.9375C0.00335693 21.8326 0.358936 22.691 0.991872 23.324C1.62481 23.9569 2.48325 24.3125 3.37836 24.3125H23.6284C24.5235 24.3125 25.3819 23.9569 26.0148 23.324C26.6478 22.691 27.0034 21.8326 27.0034 20.9375V4.0625C27.0034 3.16739 26.6478 2.30895 26.0148 1.67601C25.3819 1.04308 24.5235 0.6875 23.6284 0.6875H3.37836ZM23.6284 2.375C24.0759 2.375 24.5051 2.55279 24.8216 2.86926C25.1381 3.18572 25.3159 3.61495 25.3159 4.0625V15.0312L18.9422 11.7457C18.7839 11.6664 18.6047 11.6389 18.43 11.6671C18.2553 11.6952 18.0938 11.7776 17.9685 11.9026L11.7079 18.1632L7.21911 15.173C7.05704 15.0651 6.86264 15.0166 6.66888 15.0356C6.47511 15.0547 6.29391 15.1402 6.15598 15.2776L1.69086 19.25V4.0625C1.69086 3.61495 1.86865 3.18572 2.18511 2.86926C2.50158 2.55279 2.9308 2.375 3.37836 2.375H23.6284Z" fill="white"/>
</svg>
