<svg width="26" height="26" viewBox="0 0 26 26" fill="none" xmlns="http://www.w3.org/2000/svg">
<path d="M13 3.69922L2.88889 11.7881V23.1111H10.1111V17.3333H15.8889V23.1111H23.1111V12.4829C23.1112 12.2663 23.0625 12.0524 22.9688 11.8571C22.875 11.6619 22.7385 11.4902 22.5694 11.3548L13 3.69922ZM13 0L24.3736 9.1C24.8807 9.50571 25.2902 10.0202 25.5718 10.6056C25.8533 11.1909 25.9996 11.832 26 12.4814V23.1111C26 23.8773 25.6956 24.6121 25.1539 25.1539C24.6121 25.6956 23.8773 26 23.1111 26H2.88889C2.12271 26 1.38791 25.6956 0.846136 25.1539C0.304364 24.6121 0 23.8773 0 23.1111V11.7881C5.40189e-05 11.3551 0.0974403 10.9277 0.284957 10.5374C0.472475 10.1471 0.745326 9.80396 1.08333 9.53333L13 0Z" fill="#707070"/>
</svg>
