<svg width="30" height="25" viewBox="0 0 30 25" fill="none" xmlns="http://www.w3.org/2000/svg">
<path d="M28.125 20.25C28.125 20.7639 27.9275 21.2567 27.5758 21.62C27.2242 21.9834 26.7473 22.1875 26.25 22.1875H3.75C3.25272 22.1875 2.77581 21.9834 2.42417 21.62C2.07254 21.2567 1.875 20.7639 1.875 20.25V8.625C1.875 8.11114 2.07254 7.61833 2.42417 7.25498C2.77581 6.89163 3.25272 6.6875 3.75 6.6875H5.9475C7.43857 6.68666 8.86831 6.07409 9.9225 4.98444L11.4788 3.38019C11.8294 3.01776 12.3047 2.81364 12.8006 2.8125H17.1956C17.6929 2.81261 18.1697 3.01681 18.5212 3.38019L20.0738 4.98444C20.5962 5.52445 21.2165 5.9528 21.8992 6.24502C22.5818 6.53723 23.3136 6.68759 24.0525 6.6875H26.25C26.7473 6.6875 27.2242 6.89163 27.5758 7.25498C27.9275 7.61833 28.125 8.11114 28.125 8.625V20.25ZM3.75 4.75C2.75544 4.75 1.80161 5.15826 1.09835 5.88496C0.395088 6.61166 0 7.59729 0 8.625L0 20.25C0 21.2777 0.395088 22.2633 1.09835 22.99C1.80161 23.7167 2.75544 24.125 3.75 24.125H26.25C27.2446 24.125 28.1984 23.7167 28.9016 22.99C29.6049 22.2633 30 21.2777 30 20.25V8.625C30 7.59729 29.6049 6.61166 28.9016 5.88496C28.1984 5.15826 27.2446 4.75 26.25 4.75H24.0525C23.058 4.74978 22.1043 4.34138 21.4012 3.61462L19.8488 2.01037C19.1457 1.28362 18.192 0.875219 17.1975 0.875H12.8025C11.808 0.875219 10.8543 1.28362 10.1512 2.01037L8.59875 3.61462C7.89565 4.34138 6.94198 4.74978 5.9475 4.75H3.75Z" fill="white"/>
<path d="M15 18.3125C13.7568 18.3125 12.5645 17.8022 11.6854 16.8938C10.8064 15.9854 10.3125 14.7534 10.3125 13.4688C10.3125 12.1841 10.8064 10.9521 11.6854 10.0437C12.5645 9.13532 13.7568 8.625 15 8.625C16.2432 8.625 17.4355 9.13532 18.3146 10.0437C19.1936 10.9521 19.6875 12.1841 19.6875 13.4688C19.6875 14.7534 19.1936 15.9854 18.3146 16.8938C17.4355 17.8022 16.2432 18.3125 15 18.3125ZM15 20.25C16.7405 20.25 18.4097 19.5355 19.6404 18.2638C20.8711 16.9921 21.5625 15.2672 21.5625 13.4688C21.5625 11.6703 20.8711 9.94541 19.6404 8.67368C18.4097 7.40195 16.7405 6.6875 15 6.6875C13.2595 6.6875 11.5903 7.40195 10.3596 8.67368C9.1289 9.94541 8.4375 11.6703 8.4375 13.4688C8.4375 15.2672 9.1289 16.9921 10.3596 18.2638C11.5903 19.5355 13.2595 20.25 15 20.25ZM5.625 9.59375C5.625 9.85068 5.52623 10.0971 5.35041 10.2788C5.1746 10.4604 4.93614 10.5625 4.6875 10.5625C4.43886 10.5625 4.2004 10.4604 4.02459 10.2788C3.84877 10.0971 3.75 9.85068 3.75 9.59375C3.75 9.33682 3.84877 9.09042 4.02459 8.90874C4.2004 8.72706 4.43886 8.625 4.6875 8.625C4.93614 8.625 5.1746 8.72706 5.35041 8.90874C5.52623 9.09042 5.625 9.33682 5.625 9.59375Z" fill="white"/>
</svg>
