<svg width="28" height="26" viewBox="0 0 28 26" fill="none" xmlns="http://www.w3.org/2000/svg">
<path d="M8.52174 12C6.90737 12 5.35913 11.4732 4.21761 10.5355C3.07608 9.59785 2.43478 8.32608 2.43478 7V3C2.43478 2.73478 2.56304 2.48043 2.79135 2.29289C3.01965 2.10536 3.3293 2 3.65217 2H4.86956C5.19244 2 5.50208 1.89464 5.73039 1.70711C5.95869 1.51957 6.08695 1.26522 6.08695 1C6.08695 0.734784 5.95869 0.48043 5.73039 0.292893C5.50208 0.105357 5.19244 0 4.86956 0H3.65217C2.68356 0 1.75461 0.316071 1.0697 0.87868C0.384781 1.44129 0 2.20435 0 3V7C0.00156486 8.12974 0.33694 9.24228 0.977321 10.2421C1.6177 11.2419 2.54395 12.0991 3.67652 12.74C4.76466 13.528 5.64712 14.489 6.27064 15.5649C6.89416 16.6408 7.2458 17.8094 7.30434 19C7.30434 20.8565 8.20217 22.637 9.8003 23.9497C11.3984 25.2625 13.566 26 15.8261 26C18.0862 26 20.2537 25.2625 21.8519 23.9497C23.45 22.637 24.3478 20.8565 24.3478 19V17.86C25.4954 17.6166 26.4955 17.0378 27.1607 16.232C27.8259 15.4262 28.1105 14.4488 27.9612 13.483C27.8118 12.5172 27.2388 11.6293 26.3495 10.9857C25.4602 10.3421 24.3156 9.98702 23.1304 9.98702C21.9452 9.98702 20.8007 10.3421 19.9114 10.9857C19.0221 11.6293 18.449 12.5172 18.2997 13.483C18.1503 14.4488 18.4349 15.4262 19.1001 16.232C19.7653 17.0378 20.7655 17.6166 21.913 17.86V19C21.913 20.3261 21.2717 21.5979 20.1302 22.5355C18.9887 23.4732 17.4404 24 15.8261 24C14.2117 24 12.6635 23.4732 11.522 22.5355C10.3804 21.5979 9.73913 20.3261 9.73913 19C9.80075 17.8079 10.1562 16.6385 10.7839 15.5625C11.4117 14.4864 12.2987 13.5263 13.3913 12.74C14.5194 12.0968 15.4409 11.2387 16.0769 10.239C16.713 9.23936 17.0446 8.12796 17.0435 7V3C17.0435 2.20435 16.6587 1.44129 15.9738 0.87868C15.2889 0.316071 14.3599 0 13.3913 0H12.1739C11.851 0 11.5414 0.105357 11.3131 0.292893C11.0848 0.48043 10.9565 0.734784 10.9565 1C10.9565 1.26522 11.0848 1.51957 11.3131 1.70711C11.5414 1.89464 11.851 2 12.1739 2H13.3913C13.7142 2 14.0238 2.10536 14.2521 2.29289C14.4804 2.48043 14.6087 2.73478 14.6087 3V7C14.6087 7.65661 14.4512 8.30679 14.1453 8.91342C13.8395 9.52004 13.3911 10.0712 12.8259 10.5355C12.2606 10.9998 11.5896 11.3681 10.8511 11.6194C10.1126 11.8707 9.32108 12 8.52174 12ZM23.1304 16C22.4847 16 21.8654 15.7893 21.4088 15.4142C20.9522 15.0391 20.6956 14.5304 20.6956 14C20.6956 13.4696 20.9522 12.9609 21.4088 12.5858C21.8654 12.2107 22.4847 12 23.1304 12C23.7762 12 24.3955 12.2107 24.8521 12.5858C25.3087 12.9609 25.5652 13.4696 25.5652 14C25.5652 14.5304 25.3087 15.0391 24.8521 15.4142C24.3955 15.7893 23.7762 16 23.1304 16Z" fill="#707070"/>
</svg>
