<svg width="32" height="25" viewBox="0 0 32 25" fill="none" xmlns="http://www.w3.org/2000/svg">
<path d="M13.6 9.37105C12.72 9.37105 12 10.0742 12 10.9336V14.8398C12 15.2715 11.642 15.6211 11.2 15.6211C10.758 15.6211 10.4 15.2715 10.4 14.8398V11.102C10.4 10.2529 10.636 9.4189 11.0845 8.69038L14.972 2.36273C15.4265 1.62249 15.1815 0.663016 14.4235 0.218679C13.701 -0.204662 12.7875 0.00871767 12.3085 0.668388C12.2985 0.679618 12.2775 0.678641 12.269 0.691825L6.406 9.28072C5.878 10.0542 5.6 10.9531 5.6 11.8798V15.7973L1.094 17.2641C0.775384 17.3677 0.498235 17.5665 0.301868 17.8325C0.1055 18.0985 -0.000116643 18.4182 9.66715e-08 18.7461V23.4336C9.66715e-08 23.9619 0.426 24.9961 1.6 24.9961C1.7345 24.9961 1.8705 24.9795 2.003 24.9458L10.9625 22.6694C13.458 21.9726 15.2 19.7173 15.2 17.1836V10.9336C15.2 10.0742 14.48 9.37105 13.6 9.37105ZM30.906 17.268L26.4 15.8012V11.8838C26.4 10.957 26.122 10.0581 25.594 9.28462L19.731 0.69622C19.722 0.683036 19.7015 0.684501 19.6915 0.672782C19.2125 0.0131122 18.299 -0.200267 17.5765 0.223074C16.8185 0.666923 16.5735 1.62689 17.028 2.36712L20.9155 8.69478C21.364 9.4233 21.6 10.2573 21.6 11.1064V14.8442C21.6 15.2759 21.242 15.6255 20.8 15.6255C20.358 15.6255 20 15.2759 20 14.8442V10.9379C20 10.0786 19.28 9.37544 18.4 9.37544C17.52 9.37544 16.8 10.0786 16.8 10.9379V17.188C16.8 19.7217 18.542 21.977 21.0375 22.6733L29.997 24.9497C30.13 24.9834 30.266 25 30.4 25C31.574 25 32 23.9658 32 23.4375V18.75C32 18.0776 31.5595 17.4809 30.906 17.268Z" fill="#707070"/>
</svg>
